<svg xmlns="http://www.w3.org/2000/svg" width="196.175" height="41.417"><path d="M59.344 26.773a6.7 6.7 0 01-2.483 5.433 9.482 9.482 0 01-6.117 2.016 9.04 9.04 0 01-5.648-1.871 9.565 9.565 0 01-3.383-5.11l3.167-1.3a8.118 8.118 0 00.9 2.087 6.755 6.755 0 001.349 1.6 6.1 6.1 0 001.709 1.043 5.232 5.232 0 001.979.378 5.694 5.694 0 003.706-1.169 3.812 3.812 0 001.44-3.113 3.722 3.722 0 00-1.188-2.77 11.316 11.316 0 00-4.173-2.159q-3.1-1.114-3.851-1.511-4.1-2.088-4.1-6.153a6.277 6.277 0 012.267-4.857 8.278 8.278 0 015.649-2.015 8.689 8.689 0 015.11 1.511 7.079 7.079 0 012.878 3.706l-3.094 1.295a4.58 4.58 0 00-1.709-2.392 5.065 5.065 0 00-3.112-.954 5.034 5.034 0 00-3.275 1.079 3.147 3.147 0 00-1.331 2.627 3.043 3.043 0 001.043 2.3 17.984 17.984 0 005 2.3 12.769 12.769 0 015.6 3.257 6.959 6.959 0 011.667 4.742zm6.73-18.89v25.763h-3.31V7.883zm8.31 2.052a2.255 2.255 0 01-.684 1.654 2.255 2.255 0 01-1.655.684 2.252 2.252 0 01-1.655-.684 2.247 2.247 0 01-.684-1.654 2.252 2.252 0 01.684-1.656 2.255 2.255 0 011.655-.683 2.258 2.258 0 011.655.683 2.259 2.259 0 01.684 1.656zm-.684 6.08v17.631h-3.31V16.015zm11.513 18.207a7.749 7.749 0 01-5.939-2.736 9.7 9.7 0 01-2.446-6.656 9.707 9.707 0 012.446-6.656 7.751 7.751 0 015.937-2.734 7.6 7.6 0 013.544.827 6.193 6.193 0 012.465 2.195h.145l-.145-2.447V7.883h3.311v25.763h-3.166v-2.447h-.145a6.2 6.2 0 01-2.465 2.195 7.608 7.608 0 01-3.542.828zm.54-3.023a5.071 5.071 0 003.994-1.763 6.543 6.543 0 001.62-4.606 6.575 6.575 0 00-1.62-4.569 5.093 5.093 0 00-3.994-1.8 5.164 5.164 0 00-3.994 1.8 6.574 6.574 0 00-1.619 4.569 6.489 6.489 0 001.619 4.569 5.159 5.159 0 003.994 1.8zm20.545 3.023a8.432 8.432 0 01-6.4-2.663 9.4 9.4 0 01-2.519-6.729 9.574 9.574 0 012.447-6.71 8.094 8.094 0 016.26-2.68 8.047 8.047 0 016.243 2.536 10.144 10.144 0 012.321 7.106l-.036.36h-13.857a5.738 5.738 0 001.727 4.173 5.52 5.52 0 003.958 1.584 5.511 5.511 0 004.966-3.167l2.95 1.44a8.8 8.8 0 01-3.292 3.49 9.115 9.115 0 01-4.768 1.26zm-5.289-11.515h10.11a4.384 4.384 0 00-1.493-3.04 5.222 5.222 0 00-3.616-1.205 4.8 4.8 0 00-3.22 1.151 5.5 5.5 0 00-1.781 3.094z" fill="#000670"/><path d="M117.667 7.883h4.714v7.233l-.288 3.2h.288a5.852 5.852 0 012.177-2.068 6.315 6.315 0 013.185-.809 6.13 6.13 0 015.054 2.014 8.484 8.484 0 011.638 5.505v10.688h-4.714V23.535a4.031 4.031 0 00-.863-2.789 3.09 3.09 0 00-2.411-.953 3.546 3.546 0 00-1.727.414 3.82 3.82 0 00-1.277 1.133 5.225 5.225 0 00-.792 1.674 7.418 7.418 0 00-.27 2.032v8.6h-4.714zm37.348 21.516a9.866 9.866 0 01-3.292 3.491 9.156 9.156 0 01-5.056 1.332 9.717 9.717 0 01-3.723-.7 8.975 8.975 0 01-2.97-1.963 8.949 8.949 0 01-1.961-2.969 9.8 9.8 0 01-.7-3.76 9.647 9.647 0 01.683-3.616 9.2 9.2 0 011.907-2.986 9.229 9.229 0 012.9-2.033 8.857 8.857 0 013.689-.755 9.6 9.6 0 013.778.7 7.706 7.706 0 012.769 1.943 8.337 8.337 0 011.692 2.933 11.313 11.313 0 01.576 3.67v.431a2.433 2.433 0 00-.036.4 2.023 2.023 0 00-.036.4h-13.281a4.943 4.943 0 00.593 1.853 4.493 4.493 0 001.116 1.295 4.334 4.334 0 001.457.756 5.683 5.683 0 001.62.234 4.588 4.588 0 002.68-.738 5.4 5.4 0 001.673-1.853zm-4.282-6.835a3.021 3.021 0 00-.306-1.043 3.675 3.675 0 00-.791-1.081 4.191 4.191 0 00-1.3-.827 4.8 4.8 0 00-1.852-.324 4.32 4.32 0 00-2.663.863 4.565 4.565 0 00-1.62 2.412zm18.641 9.21h-.288a7.926 7.926 0 01-2 1.728 5.665 5.665 0 01-3.005.72 7.31 7.31 0 01-2.572-.45 6.68 6.68 0 01-2.105-1.242 5.542 5.542 0 01-1.4-1.907 5.865 5.865 0 01-.5-2.446 5.522 5.522 0 01.539-2.465 5.639 5.639 0 011.512-1.889 6.846 6.846 0 012.284-1.206 9.506 9.506 0 012.861-.413 12.391 12.391 0 012.842.27 13.744 13.744 0 011.835.557v-.54a2.878 2.878 0 00-1.115-2.32 4.221 4.221 0 00-2.77-.918 5.175 5.175 0 00-4.138 2.051l-3.418-2.338a9.267 9.267 0 017.664-3.526q4.1 0 6.26 1.924a7.248 7.248 0 012.159 5.7v10.582h-4.645zm0-5.289a9.786 9.786 0 00-1.709-.629 7.48 7.48 0 00-1.924-.234 4.075 4.075 0 00-2.609.737 2.252 2.252 0 00-.918 1.818 2.034 2.034 0 00.882 1.726 3.34 3.34 0 002.033.648 4.291 4.291 0 001.727-.342 4.294 4.294 0 001.349-.9 3.944 3.944 0 00.864-1.295 3.971 3.971 0 00.305-1.529zm8.236-10.47h4.425v2.123h.288a5.354 5.354 0 012.015-1.907 6.661 6.661 0 013.382-.791 7.638 7.638 0 013.221.7 8.626 8.626 0 012.7 1.943 9.232 9.232 0 011.853 2.969 10.165 10.165 0 01.683 3.777 10.171 10.171 0 01-.683 3.778 9.227 9.227 0 01-1.853 2.968 8.629 8.629 0 01-2.7 1.944 7.655 7.655 0 01-3.221.7 6.661 6.661 0 01-3.382-.792 5.347 5.347 0 01-2.015-1.907h-.288l.288 2.518v7.376h-4.713zm9.138 13.852a4.5 4.5 0 001.782-.359 4.681 4.681 0 001.493-1.008 4.949 4.949 0 001.044-1.583 5.314 5.314 0 00.4-2.087 5.325 5.325 0 00-.4-2.087 4.96 4.96 0 00-1.044-1.583 4.73 4.73 0 00-1.493-1.008 4.521 4.521 0 00-1.782-.359 4.7 4.7 0 00-1.78.342 4.46 4.46 0 00-1.494.989 4.925 4.925 0 00-1.043 1.583 5.386 5.386 0 00-.4 2.123 5.379 5.379 0 00.4 2.123 4.9 4.9 0 001.043 1.583 4.444 4.444 0 001.494.989 4.677 4.677 0 001.78.342zM1.742 18.47L0 16.728v-2.266L15.044 0h15.858s2.613 1.858.695 3.717-5.11 4.705-5.11 4.705l11.387 11.849s2.846 1.859-.233 4.995-13.767 13.36-13.767 13.36H8.248s-2.672-2.092-.987-3.428 5.693-5.633 5.693-5.633z" fill="#2575fc"/><path d="M5.634 15.392l3.6 3.6L24.277 4.587h-7.433zm6.659 6.854l3.725 3.917 10.674-10.37-3.844-3.647zm2.967 11.146l6.93.254 11.533-11.028-3.894-3.465z" fill="#fff"/></svg>