<svg xmlns="http://www.w3.org/2000/svg" width="196.175" height="41.417" viewBox="0 0 196.175 41.417"><g transform="translate(41.713 7.308)"><path d="M74.37-129.873a6.7,6.7,0,0,1-2.483,5.433,9.482,9.482,0,0,1-6.117,2.016,9.04,9.04,0,0,1-5.648-1.871,9.565,9.565,0,0,1-3.383-5.11l3.167-1.3a8.118,8.118,0,0,0,.9,2.087,6.755,6.755,0,0,0,1.349,1.6,6.1,6.1,0,0,0,1.709,1.043,5.232,5.232,0,0,0,1.979.378,5.694,5.694,0,0,0,3.706-1.169,3.812,3.812,0,0,0,1.44-3.113,3.722,3.722,0,0,0-1.188-2.77,11.316,11.316,0,0,0-4.173-2.159q-3.1-1.114-3.851-1.511-4.1-2.088-4.1-6.153a6.277,6.277,0,0,1,2.267-4.857,8.278,8.278,0,0,1,5.649-2.015,8.689,8.689,0,0,1,5.11,1.511,7.079,7.079,0,0,1,2.878,3.706l-3.094,1.295a4.58,4.58,0,0,0-1.709-2.392,5.065,5.065,0,0,0-3.112-.954,5.034,5.034,0,0,0-3.275,1.079,3.147,3.147,0,0,0-1.331,2.627,3.043,3.043,0,0,0,1.043,2.3,17.984,17.984,0,0,0,5,2.3,12.769,12.769,0,0,1,5.6,3.257A6.959,6.959,0,0,1,74.37-129.873Z" transform="translate(-56.739 149.338)" fill="#000670"/><path d="M81.1-148.763V-123h-3.31v-25.763Z" transform="translate(-56.739 149.338)" fill="#000670"/><path d="M89.41-146.711a2.255,2.255,0,0,1-.684,1.654,2.255,2.255,0,0,1-1.655.684,2.252,2.252,0,0,1-1.655-.684,2.247,2.247,0,0,1-.684-1.654,2.252,2.252,0,0,1,.684-1.656,2.255,2.255,0,0,1,1.655-.683,2.258,2.258,0,0,1,1.655.683A2.259,2.259,0,0,1,89.41-146.711Zm-.684,6.08V-123h-3.31v-17.631Z" transform="translate(-56.739 149.338)" fill="#000670"/><path d="M100.239-122.424A7.749,7.749,0,0,1,94.3-125.16a9.7,9.7,0,0,1-2.446-6.656,9.707,9.707,0,0,1,2.446-6.656,7.751,7.751,0,0,1,5.937-2.734,7.6,7.6,0,0,1,3.544.827,6.193,6.193,0,0,1,2.465,2.195h.145l-.145-2.447v-8.132h3.311V-123h-3.166v-2.447h-.145a6.2,6.2,0,0,1-2.465,2.195A7.608,7.608,0,0,1,100.239-122.424Zm.54-3.023a5.071,5.071,0,0,0,3.994-1.763,6.543,6.543,0,0,0,1.62-4.606,6.575,6.575,0,0,0-1.62-4.569,5.093,5.093,0,0,0-3.994-1.8,5.164,5.164,0,0,0-3.994,1.8,6.574,6.574,0,0,0-1.619,4.569,6.489,6.489,0,0,0,1.619,4.569A5.159,5.159,0,0,0,100.779-125.447Z" transform="translate(-56.739 149.338)" fill="#000670"/><path d="M121.324-122.424a8.432,8.432,0,0,1-6.4-2.663,9.4,9.4,0,0,1-2.519-6.729,9.574,9.574,0,0,1,2.447-6.71,8.094,8.094,0,0,1,6.26-2.68,8.047,8.047,0,0,1,6.243,2.536,10.144,10.144,0,0,1,2.321,7.106l-.036.36H115.783a5.738,5.738,0,0,0,1.727,4.173,5.52,5.52,0,0,0,3.958,1.584,5.511,5.511,0,0,0,4.966-3.167l2.95,1.44a8.8,8.8,0,0,1-3.292,3.49A9.115,9.115,0,0,1,121.324-122.424Zm-5.289-11.515h10.11a4.384,4.384,0,0,0-1.493-3.04,5.222,5.222,0,0,0-3.616-1.205,4.8,4.8,0,0,0-3.22,1.151A5.5,5.5,0,0,0,116.035-133.939Z" transform="translate(-56.739 149.338)" fill="#000670"/></g><path d="M132.693-148.763h4.714v7.233l-.288,3.2h.288a5.852,5.852,0,0,1,2.177-2.068,6.315,6.315,0,0,1,3.185-.809,6.13,6.13,0,0,1,5.054,2.014,8.484,8.484,0,0,1,1.638,5.505V-123h-4.714v-10.111a4.031,4.031,0,0,0-.863-2.789,3.09,3.09,0,0,0-2.411-.953,3.546,3.546,0,0,0-1.727.414,3.82,3.82,0,0,0-1.277,1.133,5.225,5.225,0,0,0-.792,1.674,7.418,7.418,0,0,0-.27,2.032v8.6h-4.714Z" transform="translate(-15.026 156.646)" fill="#2575fc"/><path d="M170.041-127.247a9.866,9.866,0,0,1-3.292,3.491,9.156,9.156,0,0,1-5.056,1.332,9.717,9.717,0,0,1-3.723-.7A8.975,8.975,0,0,1,155-125.087a8.949,8.949,0,0,1-1.961-2.969,9.8,9.8,0,0,1-.7-3.76,9.647,9.647,0,0,1,.683-3.616,9.2,9.2,0,0,1,1.907-2.986,9.229,9.229,0,0,1,2.9-2.033,8.857,8.857,0,0,1,3.689-.755,9.6,9.6,0,0,1,3.778.7,7.706,7.706,0,0,1,2.769,1.943,8.337,8.337,0,0,1,1.692,2.933,11.313,11.313,0,0,1,.576,3.67v.431a2.433,2.433,0,0,0-.036.4,2.023,2.023,0,0,0-.036.4H156.98a4.943,4.943,0,0,0,.593,1.853,4.493,4.493,0,0,0,1.116,1.295,4.334,4.334,0,0,0,1.457.756,5.683,5.683,0,0,0,1.62.234,4.588,4.588,0,0,0,2.68-.738,5.4,5.4,0,0,0,1.673-1.853Zm-4.282-6.835a3.021,3.021,0,0,0-.306-1.043,3.675,3.675,0,0,0-.791-1.081,4.191,4.191,0,0,0-1.3-.827,4.8,4.8,0,0,0-1.852-.324,4.32,4.32,0,0,0-2.663.863,4.565,4.565,0,0,0-1.62,2.412Z" transform="translate(-15.026 156.646)" fill="#2575fc"/><path d="M184.4-124.872h-.288a7.926,7.926,0,0,1-2,1.728,5.665,5.665,0,0,1-3.005.72,7.31,7.31,0,0,1-2.572-.45,6.68,6.68,0,0,1-2.105-1.242,5.542,5.542,0,0,1-1.4-1.907,5.865,5.865,0,0,1-.5-2.446,5.522,5.522,0,0,1,.539-2.465,5.639,5.639,0,0,1,1.512-1.889,6.846,6.846,0,0,1,2.284-1.206,9.506,9.506,0,0,1,2.861-.413,12.391,12.391,0,0,1,2.842.27,13.744,13.744,0,0,1,1.835.557v-.54a2.878,2.878,0,0,0-1.115-2.32,4.221,4.221,0,0,0-2.77-.918,5.175,5.175,0,0,0-4.138,2.051l-3.418-2.338a9.267,9.267,0,0,1,7.664-3.526q4.1,0,6.26,1.924a7.248,7.248,0,0,1,2.159,5.7V-123H184.4Zm0-5.289a9.786,9.786,0,0,0-1.709-.629,7.48,7.48,0,0,0-1.924-.234,4.075,4.075,0,0,0-2.609.737,2.252,2.252,0,0,0-.918,1.818,2.034,2.034,0,0,0,.882,1.726,3.34,3.34,0,0,0,2.033.648,4.291,4.291,0,0,0,1.727-.342,4.294,4.294,0,0,0,1.349-.9,3.944,3.944,0,0,0,.864-1.295A3.971,3.971,0,0,0,184.4-130.161Z" transform="translate(-15.026 156.646)" fill="#2575fc"/><path d="M192.636-140.631h4.425v2.123h.288a5.354,5.354,0,0,1,2.015-1.907,6.661,6.661,0,0,1,3.382-.791,7.638,7.638,0,0,1,3.221.7,8.626,8.626,0,0,1,2.7,1.943,9.232,9.232,0,0,1,1.853,2.969,10.165,10.165,0,0,1,.683,3.777,10.171,10.171,0,0,1-.683,3.778,9.227,9.227,0,0,1-1.853,2.968,8.629,8.629,0,0,1-2.7,1.944,7.655,7.655,0,0,1-3.221.7,6.661,6.661,0,0,1-3.382-.792,5.347,5.347,0,0,1-2.015-1.907h-.288l.288,2.518v7.376h-4.713Zm9.138,13.852a4.5,4.5,0,0,0,1.782-.359,4.681,4.681,0,0,0,1.493-1.008,4.949,4.949,0,0,0,1.044-1.583,5.314,5.314,0,0,0,.4-2.087,5.325,5.325,0,0,0-.4-2.087,4.96,4.96,0,0,0-1.044-1.583,4.73,4.73,0,0,0-1.493-1.008,4.521,4.521,0,0,0-1.782-.359,4.7,4.7,0,0,0-1.78.342,4.46,4.46,0,0,0-1.494.989,4.925,4.925,0,0,0-1.043,1.583,5.386,5.386,0,0,0-.4,2.123,5.379,5.379,0,0,0,.4,2.123,4.9,4.9,0,0,0,1.043,1.583,4.444,4.444,0,0,0,1.494.989A4.677,4.677,0,0,0,201.774-126.779Z" transform="translate(-15.026 156.646)" fill="#2575fc"/><g transform="translate(0)"><path d="M16.768-138.176l-1.742-1.742v-2.266L30.07-156.646H45.928s2.613,1.858.695,3.717-5.11,4.705-5.11,4.705L52.9-136.375s2.846,1.859-.233,4.995S38.9-118.02,38.9-118.02H23.274s-2.672-2.092-.987-3.428,5.693-5.633,5.693-5.633Z" transform="translate(-15.026 156.646)" fill="#2575fc"/><path d="M20.66-141.254l3.6,3.6,15.043-14.405H31.87Z" transform="translate(-15.026 156.646)" fill="#fff"/><path d="M27.319-134.4l3.725,3.917,10.674-10.37L37.874-144.5Z" transform="translate(-15.026 156.646)" fill="#fff"/><path d="M30.286-123.254l6.93.254,11.533-11.028-3.894-3.465Z" transform="translate(-15.026 156.646)" fill="#fff"/></g></svg>